<svg xmlns="http://www.w3.org/2000/svg" viewBox="0 0 1200 380" width="1200" height="380">
<rect width="1200" height="380" fill="#0D2B4B"/>
<path d="M 178.00 120.56 L 238.14 155.28 L 238.14 224.72 L 178.00 259.44 L 117.86 224.72 L 117.86 155.28 Z" fill="none" stroke="#F7F4EE" stroke-width="7.84" stroke-linejoin="round"/>
<path d="M 197.10 156.92 L 216.19 190.00 L 197.10 223.08 L 158.90 223.08 L 139.81 190.00 L 158.90 156.92 Z" fill="none" stroke="#F7F4EE" stroke-width="2.69" stroke-linejoin="round" opacity="0.7"/>
<line x1="238.14" y1="155.28" x2="273.05" y2="135.12" stroke="#F7F4EE" stroke-width="5.04" stroke-linecap="round"/>
<circle cx="178" cy="190" r="7.84" fill="#3EC6D0"/>
<circle cx="178.00" cy="120.56" r="11.20" fill="#3EC6D0"/>
<circle cx="238.14" cy="155.28" r="7.28" fill="#F7F4EE"/>
<circle cx="238.14" cy="224.72" r="7.28" fill="#F7F4EE"/>
<circle cx="178.00" cy="259.44" r="8.40" fill="#8FDDE2"/>
<circle cx="117.86" cy="224.72" r="7.28" fill="#F7F4EE"/>
<circle cx="117.86" cy="155.28" r="7.28" fill="#F7F4EE"/>
<circle cx="273.05" cy="135.12" r="6.16" fill="#F7F4EE"/>
<g fill="#F7F4EE">
<path d="M421.5695316216946 111.93601981204748 416.37479689443114 113.04817201977967Q414.419302734375 113.68653715699911 413.5356266312599 114.75330947157741Q412.6519505281448 115.8200817861557 412.6519505281448 117.74531584900618V208.79577010917663Q412.6519505281448 211.739060793221 414.08833002045753 213.03935495352744Q415.5247095127702 214.3396491138339 418.3168391611576 214.3396491138339H434.3715868946314Q438.1582851575017 214.3396491138339 441.16715715917945 213.0460480888188Q444.1760291608572 211.7524470638037 446.820355106771 208.52011086398363Q449.4646810526848 205.28777466416358 452.0720578672886 199.48164421784878L457.42459446519615 187.51989041501284Q458.24774934875967 185.53423664402962 459.4623161370456 184.86562576469777Q460.6768829253316 184.19701488536595 462.1787114621401 184.52963396769763Q463.83173999869825 184.89249058914186 464.4986573431492 186.2700126608312Q465.16557468760016 187.64753473252057 464.59440339803695 189.82134276151658L457.7735562313199 219.09725161653756Q457.03775560551884 222.05389781069755 455.94414204972986 223.32390316361187Q454.8505284939408 224.59390851652623 452.86825769090655 224.59390851652623Q451.35632536518574 224.59390851652623 449.8074110967815 223.94543138739465Q448.25849682837725 223.2969542582631 446.319817022413 222.64847712913155Q444.3811372164488 222.0 441.67302397155765 222.0H381.3439819956422Q379.348257247746 222.0 378.28487815502285 221.04749701076747Q377.22149906229976 220.09499402153492 377.22149906229976 218.3983027111888Q377.22149906229976 215.61301897841693 380.1647364265323 214.46398018795253L385.3796315639019 213.35182798022032Q387.37544654417036 212.70002120232581 388.2389622371793 211.62988950303196Q389.1024779301882 210.5597578037381 389.1024779301882 208.65468415099383V117.74531584900618Q389.1024779301882 115.8200817861557 388.2389622371793 114.75330947157741Q387.37544654417036 113.68653715699911 385.3796315639019 113.04817201977967L380.1647364265323 111.93601981204748Q377.22149906229976 110.78698102158307 377.22149906229976 108.0016972888112Q377.22149906229976 106.27140392768382 378.28487815502285 105.3357019638419Q379.348257247746 104.39999999999999 381.3439819956422 104.39999999999999H420.430606872797Q422.476729569912 104.39999999999999 423.51490968802574 105.3357019638419Q424.5530898061395 106.27140392768382 424.5530898061395 108.0016972888112Q424.5530898061395 110.74666020137072 421.5695316216946 111.93601981204748Z"/>
<path d="M496.3054728543163 173.9152713226676H542.4952972918153L542.8245867247582 181.5756222088337H495.96946055012944ZM504.8092210553885 218.3983027111888Q504.8092210553885 220.06475648242235 503.8331982713342 221.03237824121118Q502.8571754872799 222.0 500.75394222360853 222.0H475.9873900263906Q473.947996352613 222.0 472.9501339786649 221.03237824121118Q471.9522716047168 220.06475648242235 471.9522716047168 218.3983027111888Q471.9522716047168 217.1417266947627 472.62760740557314 216.31185611781478Q473.3029432064295 215.48198554086684 474.5662441443801 214.73611803996562L477.3719241258502 213.65756378120184Q479.61641150701047 212.70334674990178 481.2325883218646 210.5613477769196Q482.8487651367188 208.41934880393742 484.3909985740185 203.23825464463235L509.6686345869899 119.85203461343049Q510.7236536688209 116.41483131355047 510.04660074922447 114.77517776915431Q509.369547829628 113.13552422475814 506.9100147042275 112.08723211598395Q505.11246187269694 111.21030656915903 504.2086438163817 110.32332029870152Q503.30482576006654 109.436334028244 503.30482576006654 108.0016972888112Q503.30482576006654 106.23108310747146 504.36820485278963 105.31554155373573Q505.4315839455128 104.39999999999999 507.42730869340903 104.39999999999999H544.6013782650233Q546.6340593214632 104.39999999999999 547.6755988242925 105.3357019638419Q548.7171383271218 106.27140392768382 548.7171383271218 108.0016972888112Q548.7171383271218 109.41617361813783 547.8502817063033 110.3434807088077Q546.983425085485 111.27078779947757 545.1589930744171 112.0469112957716Q543.04890158844 112.73231602263449 542.5801776920557 113.8746760329008Q542.1114537956715 115.01703604316711 543.0186312373281 117.9367956533432L570.7458729484678 205.72833701688052Q572.0461425004006 209.88112311458588 573.5430196296572 211.6786554401815Q575.039896758914 213.4761877657771 577.4826175798775 214.3732614185214Q579.1726331854463 215.17961014974117 579.8614055000246 216.08003600996733Q580.5501778146029 216.9804618701935 580.5501778146029 218.3983027111888Q580.5501778146029 219.97404386508464 579.5237570813299 220.98702193254232Q578.4973363480568 222.0 576.4344177525044 222.0H541.9847118231654Q539.8949202001692 222.0 538.8920161856711 221.03237824121118Q537.8891121711731 220.06475648242235 537.8891121711731 218.3983027111888Q537.8891121711731 216.99053899919986 538.653483460486 216.14554965269565Q539.4178547497988 215.30056030619144 540.8424328165055 214.70588050085306L545.1231790450215 213.8255801884532Q546.8267183212638 213.33503208303452 547.1828859092295 211.8600150514841Q547.5390534971953 210.3849980199337 546.4806822078824 206.89406506991386L517.6918215867877 114.20416540950536L520.0908099069 112.39307660561799L492.9181671175361 202.08924046254157Q491.8698627033234 205.6104642714858 492.19243746802215 207.9069980211854Q492.5150122327209 210.20353177088498 494.0303849461377 211.59455700480936Q495.5457576595545 212.98558223873377 497.99856586092716 213.79868870347738L501.95670246058705 214.7663555790782Q503.50895355498795 215.37111251342296 504.1590873051882 216.23626227003336Q504.8092210553885 217.10141202664374 504.8092210553885 218.3983027111888Z"/>
<path d="M691.0629450003505 193.7087876948118Q691.0629450003505 206.21134810566903 681.0047784381509 214.1056740528345Q670.9466118759514 222.0 650.9177170908451 222.0H596.3719819956422Q594.376257247746 222.0 593.3128781550229 221.04749701076747Q592.2494990622997 220.09499402153492 592.2494990622997 218.3983027111888Q592.2494990622997 215.65333979862928 595.1927364265323 214.46398018795253L600.2060274628401 213.35182798022032Q602.3228049037457 212.65970038211344 603.2266414169669 211.50892704239487Q604.1304779301882 210.3581537026763 604.1304779301882 208.21115512865782V117.74531584900618Q604.1304779301882 115.8200817861557 603.3274434674979 114.76338967663048Q602.5244090048075 113.70669756710528 600.4076315639019 113.04817201977967L595.1927364265323 111.93601981204748Q592.2494990622997 110.78698102158307 592.2494990622997 108.0016972888112Q592.2494990622997 106.27140392768382 593.3128781550229 105.3357019638419Q594.376257247746 104.39999999999999 596.3719819956422 104.39999999999999H637.602136353314Q652.5877117416859 104.39999999999999 663.1078331858218 108.68231364235281Q673.6279546299577 112.96462728470563 679.1668842779696 120.59852964788675Q684.7058139259816 128.23243201106786 684.7058139259816 138.32920124959946Q684.7058139259816 146.6015097643733 680.3042334087789 153.1064681238234Q675.9026528915763 159.6114264832735 667.3430857049525 163.33599099531767Q658.7835185183287 167.06055550736187 646.2440448673368 167.06055550736187L650.4373137874603 164.92705394411087Q663.0876461126804 164.92705394411087 672.1999392478466 168.6129757899642Q681.3122323830128 172.29889763581753 686.1875886916816 178.7820133293271Q691.0629450003505 185.26512902283667 691.0629450003505 193.7087876948118ZM641.9669092404843 170.1784398661852H621.5919475727677V162.75998929291964H640.6231163676381Q647.8337383006811 162.75998929291964 652.8082666987182 160.0181888924539Q657.7827950967551 157.27638849198817 660.358263397336 151.96417271116377Q662.933731697917 146.65195693033934 662.933731697917 139.00455140429733Q662.933731697917 130.80606117242576 659.6123241203427 124.70758324474096Q656.2909165427685 118.60910531705618 650.0613949223757 115.22385815021394Q643.8318733019829 111.83861098337172 635.0117789665461 111.83861098337172H627.5791484776139V207.41492659109832Q627.5791484776139 210.9931994444132 629.620287980318 212.73697341030837Q631.6614274830222 214.48074737620354 635.5522041247488 214.48074737620354H645.55535150671Q652.7425551576018 214.48074737620354 657.7137867195011 211.79941180068255Q662.6850182814003 209.11807622516156 665.2487548828126 204.25606927326322Q667.8124914842248 199.39406232136488 667.8124914842248 192.8554096278548Q667.8124914842248 182.50311796975137 661.2637319238781 176.3407789179683Q654.7149723635316 170.1784398661852 641.9669092404843 170.1784398661852Z"/>
<path d="M750.8471220753194 223.9689686127305Q743.7540652792454 223.9689686127305 739.0483409826459 222.2502808303535Q734.3426166860462 220.5315930479765 731.5454166856707 218.83810424020885Q728.7482166852951 217.14461543244124 727.3740140084625 217.14461543244124Q726.3257362541557 217.14461543244124 725.3328837345243 218.18960147693753Q724.3400312148929 219.23458752143384 723.3606121329367 220.58366197398306Q722.3811930509806 221.93273642653227 721.3026572503746 222.97772247102859Q720.2241214497686 224.02270851552487 718.9943938524127 224.02270851552487Q717.3615195738673 224.02270851552487 716.3031636654139 222.95932019466161Q715.2448077569604 221.89593187379836 714.7845094948411 219.72885286813974L709.2404274635911 191.5113358077407Q708.9279626392722 189.84149906855822 709.5512008039356 188.61852305200696Q710.1744389685989 187.3955470354557 711.7199425833821 186.97893410521746Q713.2990482489467 186.53879625320434 714.385949187398 187.14356754264236Q715.4728501258493 187.74833883208038 716.5647783497573 189.73398645097018Q721.265440495491 199.5453320506811 726.3542115589678 205.3464567451179Q731.4429826224447 211.1475814395547 737.1617680422664 213.6776985577941Q742.8805534620882 216.2078156760335 749.3049460596443 216.2078156760335Q757.5975421332121 216.2078156760335 762.7300180112422 211.73053056898715Q767.8624938892723 207.25324546194076 767.8826542993784 199.23948140144347Q767.9028147094846 194.1288451139331 765.7490266138316 189.89348800545932Q763.5952385181785 185.65813089698554 757.7051234495939 181.80414547741412Q751.8150083810092 177.95016005784274 740.6933899229765 174.05252724534273Q728.2580520712138 169.7080255072117 720.8845363782049 164.23122755849363Q713.511020685196 158.75442960977554 710.2585384297372 151.86309688559174Q707.0060561742783 144.97176416140795 707.0060561742783 136.40380927884578Q707.0060561742783 126.53889603620767 711.7352407931686 118.91173910236358Q716.4644254120589 111.28458216851949 724.9231772181988 106.93172964888811Q733.3819290243388 102.57887712925672 744.4765534570813 102.57887712925672Q751.4620422667265 102.55871671915054 756.050142980218 104.1295423541665Q760.6382436937095 105.70036798918247 763.5211095439197 107.27119362419843Q766.4039753941298 108.8420192592144 768.0872845357061 108.8420192592144Q769.6462708055377 108.8420192592144 770.9617001407743 107.2426383409202Q772.2771294760108 105.64325742262601 773.6849547095596 104.04387650433182Q775.0927799431086 102.44449558603763 776.9003934976458 102.44449558603763Q778.5198261355163 102.44449558603763 779.467296712339 103.55490811631083Q780.4147672891618 104.66532064658402 781.2748723291755 107.61522141140699L789.0533215466738 136.07804636478426Q789.6480075041056 138.09729193264246 789.1776392908395 139.37570138686897Q788.7072710775733 140.65411084109545 786.9870609975458 141.2555196697712Q785.3609280465246 141.7930889085531 784.0774769517482 141.1244862322211Q782.7940258569718 140.45588355588913 781.9305563052893 138.71214240199328Q776.9174108789564 128.24562551146744 771.2927507822515 122.0514046049416Q765.6680906855464 115.85718369841575 759.4940527459681 113.15908196040988Q753.3200148063898 110.46098022240399 746.6133846697212 110.46098022240399Q738.5055557831527 110.46098022240399 733.3747231956124 115.42043804374336Q728.2438906080723 120.37989586508273 728.2438906080723 128.6020217626691Q728.2438906080723 133.79330994451044 730.3875954226255 138.13619505080578Q732.5313002371788 142.47908015710115 738.3541917227806 146.45905737367272Q744.1770832083822 150.4390345902443 755.2045630164743 154.59199090003966Q767.902037467897 159.33297591876982 775.2453340780735 164.73249878963827Q782.5886306882501 170.13202166050672 785.6831962248087 176.63864074221254Q788.7777617613674 183.14525982391834 788.7576013512612 191.3973730650544Q788.7576013512612 200.6104282602668 784.1846901601554 207.99733227413893Q779.6117789690495 215.38423628801107 771.1228285885156 219.67660245037078Q762.6338782079816 223.9689686127305 750.8471220753194 223.9689686127305Z"/>
</g>
<g fill="#F7F4EE">
<path d="M378.562978515625 285.0V264.925H382.2260375976563V285.0ZM381.67603759765626 285.0V281.7659503173828H390.4430120849609V285.0Z"/>
<path d="M409.2489993286133 285.5170013427734Q406.53199798583984 285.5170013427734 404.5464959716797 284.5600016784668Q402.56099395751954 283.60300201416015 401.2629919433594 282.04100234985356Q399.96498992919925 280.4790026855469 399.3297389221192 278.6805020141602Q398.6944879150391 276.88200134277344 398.6944879150391 275.21V274.605Q398.6944879150391 272.77349731445315 399.3489892578125 270.95299697875976Q400.00349060058596 269.1324966430664 401.3289926147461 267.63924697875973Q402.65449462890626 266.1459973144531 404.62624664306645 265.24949798583987Q406.5979986572266 264.3529986572266 409.2489993286133 264.3529986572266Q411.8889993286133 264.3529986572266 413.8607513427735 265.24949798583987Q415.8325033569336 266.1459973144531 417.15800537109374 267.63924697875973Q418.4835073852539 269.1324966430664 419.1435090637207 270.95299697875976Q419.80351074218754 272.77349731445315 419.80351074218754 274.605V275.21Q419.80351074218754 276.88200134277344 419.1627593994141 278.6805020141602Q418.52200805664063 280.4790026855469 417.2240060424805 282.04100234985356Q415.92600402832034 283.60300201416015 413.9405020141602 284.5600016784668Q411.95500000000004 285.5170013427734 409.2489993286133 285.5170013427734ZM409.2489993286133 282.1179449462891Q410.8329885864258 282.1179449462891 412.10072952270514 281.5459503173828Q413.3684704589844 280.97395568847656 414.25946441650393 279.97021408081054Q415.15045837402346 278.9664724731445 415.61795501708986 277.67673187255855Q416.08545166015625 276.38699127197265 416.08545166015625 274.935Q416.08545166015625 273.4005087280273 415.61245468139646 272.0970181274414Q415.1394577026367 270.7935275268555 414.2484637451172 269.81728591918943Q413.35746978759767 268.84104431152343 412.08972885131834 268.2965496826172Q410.8219879150391 267.75205505371093 409.2489993286133 267.75205505371093Q407.6650100708008 267.75205505371093 406.3972691345215 268.2965496826172Q405.1295281982422 268.84104431152343 404.2385342407227 269.81728591918943Q403.34754028320316 270.7935275268555 402.8800436401367 272.0970181274414Q402.4125469970703 273.4005087280273 402.4125469970703 274.935Q402.4125469970703 276.38699127197265 402.8800436401367 277.67673187255855Q403.34754028320316 278.9664724731445 404.2385342407227 279.97021408081054Q405.1295281982422 280.97395568847656 406.3972691345215 281.5459503173828Q407.6650100708008 282.1179449462891 409.2489993286133 282.1179449462891Z"/>
<path d="M429.902978515625 285.0V264.925H435.89807586669923L444.69248992919927 281.9199597167969H445.6054919433594L445.0554919433594 282.4149597167969V264.925H448.5205456542969V285.0H442.47044830322267L433.6760342407227 268.00504028320313H432.76303222656253L433.31303222656254 267.5100402832031V285.0Z"/>
<path d="M469.09749664306645 285.5170013427734Q466.5619845581055 285.5170013427734 464.6094812011719 284.6754969787597Q462.6569778442383 283.8339926147461 461.3232295227051 282.3764892578125Q459.9894812011719 280.9189859008789 459.30198455810546 279.0462382507324Q458.6144879150391 277.1734906005859 458.6144879150391 275.1275033569336V274.5225033569336Q458.6144879150391 272.619504699707 459.27173690795905 270.8072540283203Q459.92898590087896 268.9950033569336 461.20773590087896 267.53475234985353Q462.48648590087896 266.07450134277343 464.3619879150391 265.21375Q466.2374899291992 264.3529986572266 468.65749664306645 264.3529986572266Q471.2700033569336 264.3529986572266 473.2940077209473 265.32925033569336Q475.31801208496097 266.30550201416014 476.5445147705078 268.040754699707Q477.7710174560547 269.77600738525393 477.97451812744146 272.0585107421875H474.27846038818365Q474.09696105957033 270.6890295410156 473.2994677734375 269.7292889404297Q472.5019744873047 268.76954833984377 471.30023254394536 268.2608016967773Q470.098490600586 267.75205505371093 468.65749664306645 267.75205505371093Q467.22200469970704 267.75205505371093 466.0505137634277 268.2608016967773Q464.87902282714845 268.76954833984377 464.0512802124024 269.71004196166996Q463.2235375976563 270.6505355834961 462.7780422973633 271.95402618408207Q462.3325469970703 273.257516784668 462.3325469970703 274.8525033569336Q462.3325469970703 276.5959838867187 462.81379196166995 277.9627224731445Q463.2950369262696 279.3294610595703 464.1805288696289 280.27270568847655Q465.0660208129883 281.2159503173828 466.31726242065434 281.7054483032226Q467.5685040283204 282.1949462890625 469.09749664306645 282.1949462890625Q471.18198120117194 282.1949462890625 472.7412181091309 281.3397019958496Q474.30045501708986 280.48445770263675 475.0429449462891 279.10396575927734L474.29495971679694 282.2774597167969V276.94799865722655H477.683012084961V281.4689825439453Q476.3685140991211 283.3939926147461 474.16850906372076 284.45549697875975Q471.96850402832035 285.5170013427734 469.09749664306645 285.5170013427734ZM468.44850067138674 277.67400939941405V274.89097717285154H479.36601074218754V277.67400939941405Z"/>
<path d="M488.915478515625 285.0V264.925H492.512533569336V285.0ZM491.96253356933596 285.0V281.87595703125H501.1915026855469V285.0ZM491.96253356933596 276.359521484375V273.235478515625H500.4490093994141V276.359521484375ZM491.96253356933596 268.04904296875V264.925H500.96050537109375V268.04904296875Z"/>
<path d="M516.0594711303711 285.0 509.55299865722657 264.925H513.331559753418L518.8260140991212 282.50295501708985L517.6490228271484 281.9199597167969H520.6850067138672L519.447516784668 282.50295501708985L524.5239758300781 264.925H528.1870349121094L522.131559753418 285.0Z"/>
<path d="M537.7254785156251 285.0V264.925H541.3885375976563V285.0Z"/>
<path d="M556.729481201172 285.0V267.6090496826172H560.3925402832032V285.0ZM550.8664959716798 268.1590496826172V264.925H566.2555255126954V268.1590496826172Z"/>
<path d="M579.5229751586916 277.30000671386716 573.4179919433595 264.925H577.1910510253907L581.9540127563478 274.802961730957L581.0410208129884 274.5224630737305H583.7799899291994L582.81199798584 274.802961730957L587.2009570312501 264.925H590.7650134277345L585.0890328979493 277.30000671386716ZM580.5129751586916 285.0V276.7060040283203H584.0990328979493V285.0Z"/>
<path d="M610.0399865722658 285.0 616.9534671020509 264.925H622.9705557250978L630.1040362548829 285.0H626.3254751586916L620.2150134277344 267.4110443115234L621.5900167846681 268.02704162597655H618.191007385254L619.6265093994142 267.4110443115234L613.703045654297 285.0ZM614.7315093994142 279.5440328979492 615.8920248413087 276.41998992919923H624.1364993286134L625.297014770508 279.5440328979492Z"/>
<path d="M639.4279785156251 285.0V264.925H645.4230758666994L654.2174899291994 281.9199597167969H655.1304919433595L654.5804919433594 282.4149597167969V264.925H658.045545654297V285.0H651.9954483032228L643.2010342407228 268.00504028320313H642.2880322265627L642.8380322265626 267.5100402832031V285.0Z"/>
<path d="M672.4735375976563 285.11V281.7109436035156H676.7964959716799Q678.4024832153322 281.7109436035156 679.664723815918 281.20769897460934Q680.926964416504 280.70445434570314 681.8152073669435 279.7969627380371Q682.7034503173829 278.8894711303711 683.1709469604493 277.6464808654785Q683.6384436035157 276.40349060058594 683.6384436035157 274.92399932861326Q683.6384436035157 273.37300872802734 683.1709469604493 272.1382681274414Q682.7034503173829 270.90352752685544 681.8152073669435 270.01528625488277Q680.926964416504 269.12704498291015 679.664723815918 268.65955001831054Q678.4024832153322 268.19205505371093 676.7964959716799 268.19205505371093H672.4735375976563V264.7929986572266H676.5434973144532Q679.2659973144532 264.7929986572266 681.2899983215333 265.60424697875976Q683.3139993286134 266.41549530029295 684.6642503356934 267.8097439575195Q686.0145013427735 269.2039926147461 686.6855020141602 270.96674362182614Q687.356502685547 272.72949462890625 687.356502685547 274.62149932861325V275.2264993286133Q687.356502685547 277.0195013427734 686.6855020141602 278.78500167846676Q686.0145013427735 280.55050201416014 684.6642503356934 281.9750016784668Q683.3139993286134 283.3995013427734 681.2899983215333 284.2547506713867Q679.2659973144532 285.11 676.5434973144532 285.11ZM669.3604785156251 285.11V264.7929986572266H673.0235375976564V285.11Z"/>
<path d="M712.4175335693361 285.13200134277344V282.15096374511717H717.5545046997073Q718.9789926147463 282.15096374511717 719.7352342224124 281.36722213745117Q720.4914758300783 280.58348052978516 720.4914758300783 279.21949127197263Q720.4914758300783 277.83900268554686 719.743483886719 277.0772607421875Q718.9954919433596 276.3155187988281 717.5545046997073 276.3155187988281H712.4175335693361V274.04948791503904H717.257510070801Q719.2595147705081 274.04948791503904 720.8132698059085 274.5334889221191Q722.3670248413089 275.0174899291992 723.2552778625491 276.13124160766597Q724.1435308837893 277.2449932861328 724.1435308837893 279.1369946289062V279.52199462890627Q724.1435308837893 281.3039959716797 723.3735275268557 282.5552476501465Q722.6035241699221 283.80649932861326 721.0690194702152 284.46925033569335Q719.534514770508 285.13200134277344 717.257510070801 285.13200134277344ZM709.3704785156252 285.13200134277344V264.7929986572266H712.9675335693362V285.13200134277344ZM712.4175335693361 275.71051208496095V273.44448120117187H716.8120046997072Q718.2859906005862 273.44448120117187 718.9762332153323 272.6662399291992Q719.6664758300784 271.88799865722655 719.6664758300784 270.62300872802734Q719.6664758300784 269.3305187988281 718.9762332153323 268.55227752685545Q718.2859906005862 267.7740362548828 716.8120046997072 267.7740362548828H712.4175335693361V264.7929986572266H716.4435107421878Q719.8315161132815 264.7929986572266 721.5750234985354 266.2147506713867Q723.3185308837893 267.6365026855469 723.3185308837893 270.2930053710937V270.68900604248046Q723.3185308837893 272.5535073852539 722.4330271911624 273.66175872802734Q721.5475234985354 274.77001007080077 719.9992687988283 275.24026107788086Q718.4510140991214 275.71051208496095 716.4435107421878 275.71051208496095Z"/>
<path d="M734.4904785156252 285.0V264.925H738.1535375976564V285.0Z"/>
<path d="M758.8789993286134 285.5170013427734Q756.16199798584 285.5170013427734 754.1764959716799 284.5600016784668Q752.1909939575197 283.60300201416015 750.8929919433596 282.04100234985356Q749.5949899291994 280.4790026855469 748.9597389221194 278.6805020141602Q748.3244879150393 276.88200134277344 748.3244879150393 275.21V274.605Q748.3244879150393 272.77349731445315 748.9789892578127 270.95299697875976Q749.6334906005861 269.1324966430664 750.9589926147463 267.63924697875973Q752.2844946289065 266.1459973144531 754.2562466430666 265.24949798583987Q756.2279986572267 264.3529986572266 758.8789993286134 264.3529986572266Q761.5189993286135 264.3529986572266 763.4907513427736 265.24949798583987Q765.4625033569338 266.1459973144531 766.788005371094 267.63924697875973Q768.1135073852541 269.1324966430664 768.7735090637209 270.95299697875976Q769.4335107421877 272.77349731445315 769.4335107421877 274.605V275.21Q769.4335107421877 276.88200134277344 768.7927593994143 278.6805020141602Q768.1520080566409 280.4790026855469 766.8540060424807 282.04100234985356Q765.5560040283204 283.60300201416015 763.5705020141603 284.5600016784668Q761.5850000000002 285.5170013427734 758.8789993286134 285.5170013427734ZM758.8789993286134 282.1179449462891Q760.4629885864259 282.1179449462891 761.7307295227052 281.5459503173828Q762.9984704589846 280.97395568847656 763.8894644165041 279.97021408081054Q764.7804583740236 278.9664724731445 765.24795501709 277.67673187255855Q765.7154516601564 276.38699127197265 765.7154516601564 274.935Q765.7154516601564 273.4005087280273 765.2424546813967 272.0970181274414Q764.7694577026369 270.7935275268555 763.8784637451174 269.81728591918943Q762.9874697875979 268.84104431152343 761.7197288513186 268.2965496826172Q760.4519879150392 267.75205505371093 758.8789993286134 267.75205505371093Q757.2950100708009 267.75205505371093 756.0272691345217 268.2965496826172Q754.7595281982424 268.84104431152343 753.8685342407229 269.81728591918943Q752.9775402832033 270.7935275268555 752.5100436401369 272.0970181274414Q752.0425469970705 273.4005087280273 752.0425469970705 274.935Q752.0425469970705 276.38699127197265 752.5100436401369 277.67673187255855Q752.9775402832033 278.9664724731445 753.8685342407229 279.97021408081054Q754.7595281982424 280.97395568847656 756.0272691345217 281.5459503173828Q757.2950100708009 282.1179449462891 758.8789993286134 282.1179449462891Z"/>
<path d="M792.7879583740236 285.0V264.925H796.4510174560548V285.0ZM779.5329785156251 285.0V264.925H783.1960375976564V285.0ZM782.5140295410158 276.579521484375V273.3454718017578H793.4699664306642V276.579521484375Z"/>
<path d="M805.7749865722658 285.0 812.6884671020509 264.925H818.7055557250978L825.8390362548829 285.0H822.0604751586916L815.9500134277345 267.4110443115234L817.3250167846682 268.02704162597655H813.926007385254L815.3615093994142 267.4110443115234L809.438045654297 285.0ZM810.4665093994142 279.5440328979492 811.6270248413088 276.41998992919923H819.8714993286134L821.032014770508 279.5440328979492Z"/>
<path d="M844.1444946289064 285.5170013427734Q841.4054953002931 285.5170013427734 839.4612449645997 284.5600016784668Q837.5169946289063 283.60300201416015 836.3014926147462 282.0575016784668Q835.0859906005861 280.51200134277343 834.5139892578127 278.70525100708005Q833.9419879150392 276.8985006713867 833.9419879150392 275.21V274.605Q833.9419879150392 272.75699798583986 834.5277392578126 270.9364976501465Q835.113490600586 269.1159973144531 836.3344929504397 267.6309973144531Q837.5554953002932 266.1459973144531 839.4639959716799 265.24949798583987Q841.3724966430666 264.3529986572266 843.9904953002931 264.3529986572266Q846.7074966430665 264.3529986572266 848.7150016784669 265.3265010070801Q850.7225067138673 266.3000033569336 851.9160107421876 268.04900772094726Q853.109514770508 269.79801208496093 853.3460140991212 272.1465161132812H849.6499563598634Q849.4409570312502 270.7055322265625 848.6599630737306 269.72929061889647Q847.8789691162111 268.7530490112305 846.6827275085451 268.2525520324707Q845.4864859008791 267.75205505371093 843.9904953002931 267.75205505371093Q842.4450100708009 267.75205505371093 841.2570198059084 268.28830001831057Q840.0690295410158 268.82454498291014 839.2742855834963 269.7952862548828Q838.4795416259767 270.76602752685545 838.0697943115235 272.06951812744137Q837.6600469970705 273.37300872802734 837.6600469970705 274.935Q837.6600469970705 276.44749328613284 838.0697943115235 277.75098388671876Q838.4795416259767 279.0544744873047 839.3017855834962 280.03896575927735Q840.1240295410157 281.02345703125 841.334019470215 281.57070098876954Q842.5440093994142 282.1179449462891 844.1444946289064 282.1179449462891Q846.4654785156251 282.1179449462891 848.054968109131 280.9684536743164Q849.6444577026368 279.81896240234374 849.98545501709 277.7234838867187H853.6815127563478Q853.4175134277345 279.8629885864258 852.2432597351076 281.6339926147461Q851.0690060424806 283.4049966430664 849.031251678467 284.46099899291994Q846.9934973144533 285.5170013427734 844.1444946289064 285.5170013427734Z"/>
<path d="M876.2439959716799 285.0 868.7365362548829 275.6225H865.8820416259766L874.720512084961 264.925H878.9225805664064L870.936610107422 274.5609973144531L870.7881161499024 272.64149597167966L880.7210644531251 285.0ZM863.3079785156251 285.0V264.925H866.9710375976564V285.0Z"/>
<path d="M889.3079785156252 285.0V264.925H892.9710375976564V285.0Z"/>
<path d="M904.3629785156252 285.0V264.925H910.3580758666994L919.1524899291994 281.9199597167969H920.0654919433596L919.5154919433595 282.4149597167969V264.925H922.9805456542971V285.0H916.9304483032229L908.1360342407229 268.00504028320313H907.2230322265627L907.7730322265627 267.5100402832031V285.0Z"/>
<path d="M943.5574966430665 285.5170013427734Q941.0219845581056 285.5170013427734 939.069481201172 284.6754969787597Q937.1169778442385 283.8339926147461 935.7832295227053 282.3764892578125Q934.449481201172 280.9189859008789 933.7619845581057 279.0462382507324Q933.0744879150393 277.1734906005859 933.0744879150393 275.1275033569336V274.5225033569336Q933.0744879150393 272.619504699707 933.7317369079592 270.8072540283203Q934.3889859008791 268.9950033569336 935.667735900879 267.53475234985353Q936.9464859008791 266.07450134277343 938.8219879150392 265.21375Q940.6974899291994 264.3529986572266 943.1174966430666 264.3529986572266Q945.7300033569338 264.3529986572266 947.7540077209475 265.32925033569336Q949.7780120849611 266.30550201416014 951.004514770508 268.040754699707Q952.2310174560549 269.77600738525393 952.4345181274416 272.0585107421875H948.7384603881837Q948.5569610595705 270.6890295410156 947.7594677734378 269.7292889404297Q946.9619744873049 268.76954833984377 945.7602325439454 268.2608016967773Q944.5584906005861 267.75205505371093 943.1174966430666 267.75205505371093Q941.6820046997072 267.75205505371093 940.510513763428 268.2608016967773Q939.3390228271486 268.76954833984377 938.5112802124025 269.71004196166996Q937.6835375976565 270.6505355834961 937.2380422973636 271.95402618408207Q936.7925469970705 273.257516784668 936.7925469970705 274.8525033569336Q936.7925469970705 276.5959838867187 937.2737919616701 277.9627224731445Q937.7550369262697 279.3294610595703 938.6405288696291 280.27270568847655Q939.5260208129885 281.2159503173828 940.7772624206546 281.7054483032226Q942.0285040283205 282.1949462890625 943.5574966430665 282.1949462890625Q945.641981201172 282.1949462890625 947.2012181091311 281.3397019958496Q948.7604550170901 280.48445770263675 949.5029449462893 279.10396575927734L948.7549597167971 282.2774597167969V276.94799865722655H952.1430120849611V281.4689825439453Q950.8285140991213 283.3939926147461 948.6285090637209 284.45549697875975Q946.4285040283205 285.5170013427734 943.5574966430665 285.5170013427734ZM942.908500671387 277.67400939941405V274.89097717285154H953.8260107421877V277.67400939941405Z"/>
<path d="M982.3409939575198 285.5170013427734Q979.7174865722659 285.5170013427734 977.8969828796389 284.66999999999996Q976.076479187012 283.82299865722655 975.1249781799319 282.33799697875975Q974.1734771728518 280.85299530029295 974.1734771728518 278.9554919433594H977.7705322265628Q977.7705322265628 279.78598724365236 978.2187802124026 280.5669795227051Q978.6670281982425 281.3479718017578 979.6707698059085 281.84296508789066Q980.6745114135745 282.33795837402346 982.3409939575198 282.33795837402346Q983.8589758300784 282.33795837402346 984.854466094971 281.9062147521973Q985.8499563598635 281.4744711303711 986.3394526672366 280.7567301940918Q986.8289489746096 280.0389892578125 986.8289489746096 279.15349731445315Q986.8289489746096 278.05900604248046 985.8884570312503 277.3797640991211Q984.9479650878909 276.70052215576175 983.0064724731448 276.5300234985352L981.1529953002932 276.37052551269534Q978.3094845581057 276.1285241699219 976.6154785156252 274.5995181274414Q974.9214724731448 273.0705120849609 974.9214724731448 270.55700134277345Q974.9214724731448 268.65949798583983 975.8262231445315 267.27349731445315Q976.7309738159182 265.8874966430664 978.3589758300784 265.1202476501465Q979.9869778442386 264.3529986572266 982.1704818725589 264.3529986572266Q984.4144912719729 264.3529986572266 986.0589942932131 265.145Q987.7034973144534 265.93700134277344 988.6027476501467 267.3697540283203Q989.5019979858401 268.80250671386716 989.5019979858401 270.74950805664065H985.9049429321292Q985.9049429321292 269.9080154418945 985.5006959533694 269.17652282714846Q985.0964489746096 268.44503021240234 984.2714573669437 267.9885359191894Q983.4464657592777 267.53204162597655 982.1704818725589 267.53204162597655Q980.9494979858401 267.53204162597655 980.1382580566409 267.9500352478027Q979.3270181274416 268.3680288696289 978.9227728271487 269.0582698059082Q978.5185275268558 269.7485107421875 978.5185275268558 270.55700134277345Q978.5185275268558 271.5249932861328 979.2390194702152 272.25648590087894Q979.9595114135745 272.987978515625 981.4830020141604 273.1144778442383L983.336479187012 273.27397583007814Q985.4759838867191 273.44997650146485 987.0682395935062 274.184228515625Q988.6604953002933 274.91848052978514 989.5432496643069 276.15873489379885Q990.4260040283206 277.3989892578125 990.4260040283206 279.15349731445315Q990.4260040283206 281.04 989.4305036926272 282.4810006713867Q988.4350033569339 283.92200134277346 986.6200016784671 284.71950134277347Q984.8050000000003 285.5170013427734 982.3409939575198 285.5170013427734Z"/>
<path d="M1009.7214993286135 285.5170013427734Q1007.0044979858401 285.5170013427734 1005.0189959716799 284.5600016784668Q1003.0334939575198 283.60300201416015 1001.7354919433596 282.04100234985356Q1000.4374899291995 280.4790026855469 999.8022389221194 278.6805020141602Q999.1669879150394 276.88200134277344 999.1669879150394 275.21V274.605Q999.1669879150394 272.77349731445315 999.8214892578128 270.95299697875976Q1000.4759906005862 269.1324966430664 1001.8014926147464 267.63924697875973Q1003.1269946289066 266.1459973144531 1005.0987466430668 265.24949798583987Q1007.0704986572268 264.3529986572266 1009.7214993286135 264.3529986572266Q1012.3614993286136 264.3529986572266 1014.3332513427738 265.24949798583987Q1016.3050033569339 266.1459973144531 1017.630505371094 267.63924697875973Q1018.9560073852542 269.1324966430664 1019.616009063721 270.95299697875976Q1020.2760107421877 272.77349731445315 1020.2760107421877 274.605V275.21Q1020.2760107421877 276.88200134277344 1019.6352593994143 278.6805020141602Q1018.9945080566409 280.4790026855469 1017.6965060424807 282.04100234985356Q1016.3985040283205 283.60300201416015 1014.4130020141604 284.5600016784668Q1012.4275000000002 285.5170013427734 1009.7214993286135 285.5170013427734ZM1009.7214993286135 282.1179449462891Q1011.305488586426 282.1179449462891 1012.5732295227053 281.5459503173828Q1013.8409704589847 280.97395568847656 1014.7319644165042 279.97021408081054Q1015.6229583740237 278.9664724731445 1016.0904550170901 277.67673187255855Q1016.5579516601565 276.38699127197265 1016.5579516601565 274.935Q1016.5579516601565 273.4005087280273 1016.0849546813968 272.0970181274414Q1015.611957702637 270.7935275268555 1014.7209637451175 269.81728591918943Q1013.829969787598 268.84104431152343 1012.5622288513187 268.2965496826172Q1011.2944879150393 267.75205505371093 1009.7214993286135 267.75205505371093Q1008.137510070801 267.75205505371093 1006.8697691345217 268.2965496826172Q1005.6020281982425 268.84104431152343 1004.7110342407229 269.81728591918943Q1003.8200402832034 270.7935275268555 1003.352543640137 272.0970181274414Q1002.8850469970706 273.4005087280273 1002.8850469970706 274.935Q1002.8850469970706 276.38699127197265 1003.352543640137 277.67673187255855Q1003.8200402832034 278.9664724731445 1004.7110342407229 279.97021408081054Q1005.6020281982425 280.97395568847656 1006.8697691345217 281.5459503173828Q1008.137510070801 282.1179449462891 1009.7214993286135 282.1179449462891Z"/>
<path d="M1039.3569946289065 285.5170013427734Q1036.6179953002932 285.5170013427734 1034.6737449645998 284.5600016784668Q1032.7294946289064 283.60300201416015 1031.5139926147463 282.0575016784668Q1030.298490600586 280.51200134277343 1029.7264892578128 278.70525100708005Q1029.1544879150392 276.8985006713867 1029.1544879150392 275.21V274.605Q1029.1544879150392 272.75699798583986 1029.7402392578128 270.9364976501465Q1030.3259906005862 269.1159973144531 1031.5469929504397 267.6309973144531Q1032.7679953002933 266.1459973144531 1034.67649597168 265.24949798583987Q1036.5849966430667 264.3529986572266 1039.2029953002932 264.3529986572266Q1041.9199966430667 264.3529986572266 1043.927501678467 265.3265010070801Q1045.9350067138673 266.3000033569336 1047.1285107421877 268.04900772094726Q1048.322014770508 269.79801208496093 1048.5585140991213 272.1465161132812H1044.8624563598635Q1044.6534570312501 270.7055322265625 1043.8724630737306 269.72929061889647Q1043.091469116211 268.7530490112305 1041.895227508545 268.2525520324707Q1040.698985900879 267.75205505371093 1039.2029953002932 267.75205505371093Q1037.657510070801 267.75205505371093 1036.4695198059085 268.28830001831057Q1035.2815295410157 268.82454498291014 1034.4867855834964 269.7952862548828Q1033.6920416259768 270.76602752685545 1033.2822943115236 272.06951812744137Q1032.8725469970705 273.37300872802734 1032.8725469970705 274.935Q1032.8725469970705 276.44749328613284 1033.2822943115236 277.75098388671876Q1033.6920416259768 279.0544744873047 1034.5142855834963 280.03896575927735Q1035.3365295410158 281.02345703125 1036.5465194702151 281.57070098876954Q1037.7565093994142 282.1179449462891 1039.3569946289065 282.1179449462891Q1041.6779785156252 282.1179449462891 1043.2674681091312 280.9684536743164Q1044.856957702637 279.81896240234374 1045.1979550170902 277.7234838867187H1048.8940127563478Q1048.6300134277346 279.8629885864258 1047.4557597351077 281.6339926147461Q1046.2815060424807 283.4049966430664 1044.243751678467 284.46099899291994Q1042.2059973144533 285.5170013427734 1039.3569946289065 285.5170013427734Z"/>
<path d="M1058.5754785156253 285.0V264.925H1062.2385375976564V285.0Z"/>
<path d="M1073.630478515625 285.0V264.925H1077.227533569336V285.0ZM1076.677533569336 285.0V281.87595703125H1085.906502685547V285.0ZM1076.677533569336 276.359521484375V273.235478515625H1085.1640093994142V276.359521484375ZM1076.677533569336 268.04904296875V264.925H1085.6755053710938V268.04904296875Z"/>
<path d="M1100.196981201172 285.0V267.6090496826172H1103.8600402832033V285.0ZM1094.3339959716798 268.1590496826172V264.925H1109.7230255126956V268.1590496826172Z"/>
<path d="M1122.9904751586914 277.30000671386716 1116.8854919433595 264.925H1120.6585510253908L1125.4215127563477 274.802961730957L1124.5085208129883 274.5224630737305H1127.2474899291992L1126.27949798584 274.802961730957L1130.66845703125 264.925H1134.2325134277344L1128.5565328979494 277.30000671386716ZM1123.9804751586914 285.0V276.7060040283203H1127.5665328979494V285.0Z"/>
</g>
<line x1="376" y1="248" x2="1135" y2="248" stroke="#3EC6D0" stroke-width="3" stroke-linecap="round"/>
</svg>